Coordinates
version=1
nRows=24
nColumns=24
inDegrees=yes

Units are S.I. units (second, meters, Newtons, ...)
If the header above contains a line with 'inDegrees', this indicates whether rotational values are in degrees (yes) or radians (no).

endheader
time	pelvis_tilt	pelvis_list	pelvis_rotation	pelvis_tx	pelvis_ty	pelvis_tz	hip_flexion_r	hip_adduction_r	hip_rotation_r	knee_angle_r	ankle_angle_r	subtalar_angle_r	mtp_angle_r	hip_flexion_l	hip_adduction_l	hip_rotation_l	knee_angle_l	ankle_angle_l	subtalar_angle_l	mtp_angle_l	lumbar_extension	lumbar_bending	lumbar_rotation
      5.25000000	     -6.41014629	    -26.80518265	    -95.01943838	     -0.24630261	      0.95357046	     -2.13269440	    -47.55044065	      2.97538897	     -5.06759581	     -8.79942758	     10.04928199	     11.38431898	      0.00000000	     -3.93976507	     -7.03034418	    -14.22114212	     -1.76434941	      5.01365047	      4.78679433	      0.00000000	    -46.71403331	      1.68935108	     11.05896714
      5.26000000	     -5.62144262	    -27.04939021	    -95.14147415	     -0.24491835	      0.95297452	     -2.11550998	    -47.31275711	      1.67268447	     -5.82219881	    -11.29859835	      9.45282449	     11.94873773	      0.00000000	     -4.25140002	     -6.15644945	    -14.16595701	     -3.26512760	      3.15459209	      4.56523015	      0.00000000	    -46.70003083	      0.67106899	     10.66440553
      5.27000000	     -4.70088383	    -27.32725549	    -95.24228992	     -0.24343170	      0.95281265	     -2.09835470	    -46.88829715	      0.20810494	     -6.61685105	    -14.08106554	      8.39677497	     12.25784840	      0.00000000	     -4.69795633	     -5.15248481	    -14.31670964	     -4.52321467	      1.01775602	      4.29611536	      0.00000000	    -46.72251082	     -0.46562900	     10.22203503
      5.28000000	     -3.58540689	    -27.63105034	    -95.23494172	     -0.24171243	      0.95310645	     -2.08132774	    -46.24003464	     -1.46156319	     -7.66287518	    -17.18035871	      6.80539891	     12.54988242	      0.00000000	     -5.19576221	     -3.95945380	    -14.43893580	     -5.70719270	     -0.89776402	      3.86658629	      0.00000000	    -46.78977444	     -1.71703589	      9.62262909
      5.29000000	     -2.30197714	    -27.90766736	    -95.09465674	     -0.23974883	      0.95378265	     -2.06459141	    -45.28791318	     -3.30071139	     -8.85058572	    -20.62253313	      4.57731799	     12.65089310	      0.00000000	     -5.57685603	     -2.61315973	    -14.34076462	     -7.06992622	     -2.16314473	      3.23944304	      0.00000000	    -46.87990885	     -3.03296017	      8.86877155
      5.30000000	     -0.93813075	    -28.09923821	    -94.82989374	     -0.23751355	      0.95469411	     -2.04829580	    -43.96022976	     -5.22827547	    -10.01891108	    -24.40715028	      1.62447191	     12.39457084	      0.00000000	     -5.70576295	     -1.19941306	    -14.00886024	     -8.76622182	     -2.67502225	      2.49046928	      0.00000000	    -46.96348021	     -4.30943807	      8.00224795
      5.31000000	      0.42388705	    -28.11132992	    -94.47002813	     -0.23506849	      0.95554247	     -2.03243324	    -42.17259803	     -7.16307708	    -11.02635440	    -28.49943852	     -1.99580284	     11.61892895	      0.00000000	     -5.48099942	      0.19383105	    -13.56769568	    -10.80573799	     -2.42535319	      1.86112273	      0.00000000	    -46.93697473	     -5.47919483	      7.06508083
      5.32000000	      1.64861402	    -27.90926211	    -94.09494065	     -0.23248275	      0.95617209	     -2.01700758	    -39.92644612	     -8.98482791	    -11.73082719	    -32.77752338	     -6.16382053	     10.22675479	      0.00000000	     -4.96402708	      1.44528477	    -13.19577529	    -12.99643737	     -1.69891603	      1.42269387	      0.00000000	    -46.75149745	     -6.44734490	      6.14625014
      5.33000000	      2.63389875	    -27.54920768	    -93.80923837	     -0.22993027	      0.95661365	     -2.00195323	    -37.34561822	    -10.60233737	    -12.05950249	    -37.05319842	    -10.59688283	      8.20752100	      0.00000000	     -4.35756819	      2.45989093	    -13.08492031	    -15.08276435	     -0.69463238	      1.29653738	      0.00000000	    -46.43300614	     -7.18956722	      5.34385920
      5.34000000	      3.39224619	    -27.18932179	    -93.68238836	     -0.22750123	      0.95709629	     -1.98711664	    -34.68458035	    -12.04266944	    -12.07783446	    -41.14142605	    -14.78342951	      5.74481179	      0.00000000	     -3.98500289	      3.28150643	    -13.27971221	    -16.78671335	      0.41536190	      1.41123944	      0.00000000	    -46.09780167	     -7.76820944	      4.70122963
      5.35000000	      3.96063259	    -26.90952354	    -93.68108839	     -0.22516153	      0.95782825	     -1.97242226	    -32.10795341	    -13.29509177	    -11.89925978	    -44.92050112	    -18.06561463	      3.05319217	      0.00000000	     -3.99666838	      3.96562226	    -13.66434937	    -17.97497621	      1.50843903	      1.66982611	      0.00000000	    -45.81722892	     -8.20095867	      4.17474631
      5.36000000	      4.35285874	    -26.72453408	    -93.77823389	     -0.22292631	      0.95894119	     -1.95790476	    -29.64740818	    -14.31832795	    -11.55684340	    -48.37726107	    -19.85737188	      0.26900986	      0.00000000	     -4.39848639	      4.53350367	    -14.12954519	    -18.64758850	      2.53877045	      2.00163636	      0.00000000	    -45.61732255	     -8.49183959	      3.75372825
      5.37000000	      4.52312550	    -26.71438519	    -94.03488518	     -0.22096352	      0.96067965	     -1.94356707	    -27.38032366	    -15.03224357	    -10.94726792	    -51.46641709	    -20.03911700	     -2.47658986	      0.00000000	     -5.28579147	      4.97794612	    -14.56000875	    -18.77635940	      3.35775529	      2.16653699	      0.00000000	    -45.57946572	     -8.65200399	      3.51974564
      5.38000000	      4.52519312	    -26.72592314	    -94.34114128	     -0.21914940	      0.96281653	     -1.92948706	    -25.13510175	    -15.43689758	    -10.20160096	    -54.21412469	    -18.86311455	     -4.88144592	      0.00000000	     -6.36655636	      5.32389164	    -14.84270622	    -18.56530124	      4.00728383	      2.12952422	      0.00000000	    -45.57427548	     -8.66668138	      3.38605210
      5.39000000	      4.36171057	    -26.80405091	    -94.74848993	     -0.21757812	      0.96538113	     -1.91558465	    -22.96983787	    -15.54583392	     -9.27552661	    -56.55832742	    -16.75867135	     -6.66556091	      0.00000000	     -7.69570519	      5.61738880	    -14.84124879	    -17.99451991	      4.40561907	      1.62950537	      0.00000000	    -45.63760964	     -8.58253108	      3.42479984
      5.40000000	      4.09683414	    -27.04433179	    -95.20914058	     -0.21626392	      0.96837280	     -1.90175469	    -21.04341304	    -15.43766078	     -8.29182523	    -58.43271622	    -14.40416846	     -7.87389699	      0.00000000	     -9.34860316	      5.89835062	    -14.63597025	    -17.13819414	      4.60900458	      0.87407213	      0.00000000	    -45.86596048	     -8.45223713	      3.54199004
      5.41000000	      3.85295217	    -26.75988799	    -95.63726387	     -0.21481435	      0.97064208	     -1.88843019	    -18.41376042	    -15.24140164	     -7.29334820	    -60.19460682	    -12.00479448	     -8.31782892	      0.00000000	    -10.31822929	      6.21218457	    -13.98224591	    -16.36688213	      4.59364676	     -0.59518702	      0.00000000	    -45.60767938	     -8.27937458	      3.68737408
      5.42000000	      3.48042431	    -26.56120609	    -96.15268240	     -0.21358929	      0.97299783	     -1.87506415	    -15.96935985	    -14.86147704	     -6.31562239	    -61.50211470	     -9.97570180	     -8.28606586	      0.00000000	    -11.46488777	      6.42226714	    -13.33322369	    -15.48205885	      4.58419017	     -2.08333224	      0.00000000	    -45.42115353	     -8.04102293	      3.95750153
      5.43000000	      3.13485353	    -26.31047724	    -96.70154761	     -0.21244525	      0.97507820	     -1.86171822	    -13.51220572	    -14.47745197	     -5.41012773	    -62.48941035	     -8.31617094	     -7.96610029	      0.00000000	    -12.56088543	      6.65689486	    -12.70347686	    -14.58435373	      4.57229905	     -3.57546197	      0.00000000	    -45.17344689	     -7.84278249	      4.25481154
      5.44000000	      2.79094118	    -26.03595857	    -97.27509513	     -0.21142143	      0.97691429	     -1.84833224	    -11.11478641	    -14.05793660	     -4.60991480	    -63.13620361	     -6.93300287	     -7.48564286	      0.00000000	    -13.64486812	      6.86519920	    -12.22111407	    -13.67930468	      4.61635226	     -4.84881401	      0.00000000	    -44.89055020	     -7.66160542	      4.56252521
      5.45000000	      2.43135119	    -25.78053037	    -97.86416038	     -0.21052194	      0.97857355	     -1.83487653	     -8.85986789	    -13.58167503	     -3.93249555	    -63.42477913	     -5.67619945	     -6.93411470	      0.00000000	    -14.77074403	      7.01982421	    -12.01187805	    -12.76373957	      4.74180177	     -5.73085911	      0.00000000	    -44.61853295	     -7.47441073	      4.84997745
      5.46000000	      2.03526462	    -25.60696697	    -98.45606596	     -0.20977751	      0.98014837	     -1.82136054	     -6.84506577	    -13.02272144	     -3.38784230	    -63.34283457	     -4.43629140	     -6.35033971	      0.00000000	    -16.01200695	      7.10374337	    -12.12528628	    -11.83405006	      4.96475692	     -6.10397009	      0.00000000	    -44.43019884	     -7.26426801	      5.11104882
      5.47000000	      1.62179690	    -25.50438772	    -99.00702268	     -0.20911920	      0.98161870	     -1.80780887	     -5.07189618	    -12.41537236	     -3.02956100	    -62.89954316	     -3.12976669	     -5.73573518	      0.00000000	    -17.33965803	      7.14316703	    -12.47104853	    -10.90496060	      5.22959463	     -6.13943606	      0.00000000	    -44.31874797	     -7.02464631	      5.30805140
      5.48000000	      1.16671525	    -25.45819524	    -99.48624186	     -0.20855568	      0.98296510	     -1.79427348	     -3.54011767	    -11.71879753	     -2.85924055	    -62.09982742	     -1.73686600	     -5.10288303	      0.00000000	    -18.70539533	      7.08417383	    -13.10707755	    -10.05557285	      5.68145458	     -5.54753797	      0.00000000	    -44.28396847	     -6.71663072	      5.42995581
